<svg width="561" height="640" viewBox="0 0 561 640" fill="none" xmlns="http://www.w3.org/2000/svg">
<path d="M500.529 218.053H553.692C541.314 163.879 513.129 114.595 472.707 76.4465C432.285 38.2977 381.446 13.0001 326.629 3.75845V56.2508C367.634 64.7726 405.521 84.3583 436.177 112.882C466.834 141.407 489.09 177.779 500.529 218.053Z" fill="#FAFAFA"/>
<path d="M560.645 280.33C560.645 277.244 560.645 274.178 560.498 271.113H548.924H271.05V317.495L370.97 490.51C340.014 503.892 306.483 510.273 272.773 509.196C239.064 508.119 206.008 499.611 175.971 484.279C145.933 468.948 119.655 447.172 99.0144 420.508C78.3742 393.845 63.882 362.952 56.5738 330.039C49.2655 297.126 49.3219 263.005 56.7387 230.117C64.1555 197.228 78.7496 166.383 99.4777 139.788C120.206 113.193 146.556 91.5035 176.644 76.2711C206.732 61.0388 239.815 52.6394 273.528 51.6735V0C231.943 1.03348 191.109 11.2997 153.983 30.055C116.856 48.8103 84.3679 75.5851 58.8705 108.44C33.3731 141.295 15.5052 179.408 6.56087 220.017C-2.38343 260.627 -2.18014 302.716 7.15602 343.238C16.4922 383.759 34.7275 421.697 60.541 454.304C86.3546 486.912 119.1 513.372 156.406 531.768C193.712 550.164 234.643 560.035 276.236 560.667C317.83 561.299 359.043 552.676 396.89 535.422L456.776 639.084L496.832 615.987L437.199 512.766C475.248 487.095 506.405 452.472 527.93 411.943C549.455 371.413 560.689 326.217 560.645 280.33V280.33ZM324.402 317.306H506.116C501.175 347.46 490.244 376.32 473.967 402.183C457.689 428.047 436.396 450.39 411.342 467.896L324.402 317.306Z" fill="#FAFAFA"/>
</svg>
